<svg width="24" height="24" viewBox="0 0 24 24" fill="none" xmlns="http://www.w3.org/2000/svg">
<path fill-rule="evenodd" clip-rule="evenodd" d="M17.0309 2.46912C17.1007 2.53879 17.1561 2.62155 17.1939 2.71267C17.2318 2.80379 17.2512 2.90147 17.2512 3.00012C17.2512 3.09877 17.2318 3.19645 17.1939 3.28757C17.1561 3.37869 17.1007 3.46145 17.0309 3.53112L8.56038 12.0001L17.0309 20.4691C17.1717 20.6099 17.2508 20.801 17.2508 21.0001C17.2508 21.1993 17.1717 21.3903 17.0309 21.5311C16.89 21.6719 16.699 21.7511 16.4999 21.7511C16.3007 21.7511 16.1097 21.6719 15.9689 21.5311L6.96888 12.5311C6.89903 12.4615 6.84362 12.3787 6.80581 12.2876C6.768 12.1965 6.74854 12.0988 6.74854 12.0001C6.74854 11.9015 6.768 11.8038 6.80581 11.7127C6.84362 11.6216 6.89903 11.5388 6.96888 11.4691L15.9689 2.46912C16.0385 2.39928 16.1213 2.34386 16.2124 2.30605C16.3035 2.26824 16.4012 2.24878 16.4999 2.24878C16.5985 2.24878 16.6962 2.26824 16.7873 2.30605C16.8784 2.34386 16.9612 2.39928 17.0309 2.46912Z" fill="black"/>
</svg>
