<svg width="24" height="24" viewBox="0 0 24 24" fill="none" xmlns="http://www.w3.org/2000/svg">
<path fill-rule="evenodd" clip-rule="evenodd" d="M6.96888 2.46912C7.03854 2.39928 7.12131 2.34386 7.21243 2.30605C7.30354 2.26824 7.40122 2.24878 7.49988 2.24878C7.59853 2.24878 7.69621 2.26824 7.78733 2.30605C7.87844 2.34386 7.96121 2.39928 8.03088 2.46912L17.0309 11.4691C17.1007 11.5388 17.1561 11.6216 17.1939 11.7127C17.2318 11.8038 17.2512 11.9015 17.2512 12.0001C17.2512 12.0988 17.2318 12.1965 17.1939 12.2876C17.1561 12.3787 17.1007 12.4615 17.0309 12.5311L8.03088 21.5311C7.89005 21.6719 7.69904 21.7511 7.49988 21.7511C7.30071 21.7511 7.10971 21.6719 6.96888 21.5311C6.82805 21.3903 6.74893 21.1993 6.74893 21.0001C6.74893 20.801 6.82805 20.6099 6.96888 20.4691L15.4394 12.0001L6.96888 3.53112C6.89903 3.46145 6.84362 3.37869 6.80581 3.28757C6.768 3.19645 6.74854 3.09877 6.74854 3.00012C6.74854 2.90147 6.768 2.80379 6.80581 2.71267C6.84362 2.62155 6.89903 2.53879 6.96888 2.46912Z" fill="black"/>
</svg>
