<svg width="34" height="35" viewBox="0 0 34 35" fill="none" xmlns="http://www.w3.org/2000/svg">
<g clip-path="url(#clip0_0_2630)">
<path d="M33.9955 17.6019C33.9955 8.15411 26.3837 0.495605 16.9955 0.495605C7.60296 0.49773 -0.00878906 8.15411 -0.00878906 17.604C-0.00878906 26.1401 6.20896 33.2164 14.335 34.4999V22.5467H10.0212V17.604H14.3392V13.8321C14.3392 9.54598 16.8786 7.17873 20.761 7.17873C22.6225 7.17873 24.5668 7.51236 24.5668 7.51236V11.7199H22.4227C20.3126 11.7199 19.6538 13.0395 19.6538 14.3931V17.6019H24.3671L23.6148 22.5446H19.6517V34.4977C27.7777 33.2142 33.9955 26.138 33.9955 17.6019Z" fill="#454545"/>
</g>
<defs>
<clipPath id="clip0_0_2630">
<rect width="34" height="34" fill="white" transform="translate(0 0.5)"/>
</clipPath>
</defs>
</svg>
