<svg width="500" height="97" viewBox="0 0 500 97" fill="none" xmlns="http://www.w3.org/2000/svg">
<g clip-path="url(#clip0_0_2704)">
<path d="M393.354 34.5498L331.787 61.6827L393.705 49.4679L500 78.7033L393.354 34.5498Z" fill="#231F20"/>
<path d="M457.659 54.3737L393.121 0.858887L312.794 59.0794H0V61.6826H315.515L392.82 25.7724L457.659 54.3737Z" fill="#98002E"/>
<path d="M56.4106 80.8559C57.4453 80.6056 58.4133 80.1718 59.2645 79.5877C60.1157 79.0037 60.8333 78.2194 61.3841 77.2849C61.9348 76.3338 62.2018 75.1323 62.2018 73.6973C62.2018 72.1621 61.9181 70.8772 61.334 69.9093C60.7665 68.9248 60.0155 68.1572 59.0976 67.5899C58.1964 67.0392 57.1783 66.6554 56.0267 66.4551C54.9085 66.2549 53.7737 66.1548 52.6888 66.1548H44.2773V96.1578H45.6959V81.2898H52.2215L61.067 96.041L61.1337 96.1578H62.7526L53.7903 81.2397C54.6415 81.2064 55.5094 81.0895 56.3939 80.8726L56.4106 80.8559ZM45.7126 79.9882V67.4564H52.2048C53.2897 67.4564 54.3745 67.5565 55.4259 67.74C56.4607 67.9236 57.3786 68.2573 58.1797 68.7246C58.9641 69.1918 59.5983 69.8259 60.0656 70.6436C60.5329 71.4445 60.7832 72.4791 60.7832 73.6973C60.7832 75.683 60.099 77.2516 58.7304 78.3362C57.3619 79.4375 55.3091 79.9882 52.6555 79.9882H45.6959H45.7126Z" fill="#231F20"/>
<path d="M87.1193 81.2731H102.457V79.9381H87.1193V67.4897H103.408V66.1548H85.7007V96.1411H104.076V94.8229H87.1193V81.2731Z" fill="#231F20"/>
<path d="M137.655 66.1548H136.153L123.152 96.1578H124.704L128.326 87.6976H145.115L148.62 96.1578H150.155L137.722 66.3217L137.655 66.1715V66.1548ZM128.86 86.396L136.854 67.6232L144.615 86.396H128.876H128.86Z" fill="#231F20"/>
<path d="M172.786 66.1548H171.368V96.1411H187.456V94.8229H172.786V66.1548Z" fill="#231F20"/>
<path d="M201.108 67.4897H211.155V96.1411H212.574V67.4897H222.621V66.1548H201.108V67.4897Z" fill="#231F20"/>
<path d="M250.526 81.5902L241.196 66.2716L241.129 66.1548H239.46L249.775 83.0586V96.1411H251.193V83.0586L261.524 66.1548H259.888L250.526 81.5902Z" fill="#231F20"/>
<path d="M6.6592 22.6518H6.77603L18.2584 53.4558H23.0316L34.6641 22.6518H34.781V53.4558H41.5569V15.1094H30.8256L20.9621 42.3591H20.7952L10.8316 15.1094H0.166992V53.4558H6.6592V22.6518Z" fill="#231F20"/>
<path d="M58.0125 15.1094H51.1865V53.4558H58.0125V15.1094Z" fill="#231F20"/>
<path d="M74.4852 34.2325H74.6521L91.4917 53.4558H101.072L81.9621 32.8308L99.8866 15.1094H90.674L74.6521 31.6961H74.4852V15.1094H67.6592V53.4558H74.4852V34.2325Z" fill="#231F20"/>
<path d="M132.548 47.3985H112.988V36.5687H130.595V30.8284H112.988V21.0666H131.563V15.1094H106.162V53.4558H132.548V47.3985Z" fill="#231F20"/>
<path d="M161.955 34.2325H162.122L178.962 53.4558H188.558L169.432 32.8308L187.356 15.1094H178.16L162.122 31.6961H161.955V15.1094H155.129V53.4558H161.955V34.2325Z" fill="#231F20"/>
<path d="M195.834 48.7669C197.653 50.5524 199.823 51.9374 202.327 52.9386C204.83 53.9231 207.567 54.4237 210.538 54.4237C213.508 54.4237 216.296 53.9231 218.832 52.9386C221.352 51.9541 223.539 50.5524 225.391 48.7669C227.227 46.9814 228.663 44.8455 229.697 42.3758C230.732 39.9061 231.249 37.1695 231.249 34.1659C231.249 31.1622 230.732 28.3255 229.697 25.8558C228.663 23.3861 227.227 21.2836 225.391 19.5482C223.556 17.8127 221.369 16.4778 218.832 15.5433C216.296 14.6088 213.542 14.1416 210.538 14.1416C207.534 14.1416 204.847 14.6088 202.327 15.5433C199.823 16.4778 197.653 17.8127 195.834 19.5482C194.015 21.2836 192.58 23.3861 191.562 25.8558C190.527 28.3255 190.026 31.0955 190.026 34.1659C190.026 37.2362 190.544 39.8895 191.562 42.3758C192.597 44.8455 194.015 46.9814 195.834 48.7669ZM198.388 28.6425C199.022 26.9404 199.907 25.472 201.075 24.2038C202.226 22.9356 203.612 21.9511 205.214 21.2168C206.816 20.4993 208.618 20.1322 210.604 20.1322C212.591 20.1322 214.393 20.4993 216.029 21.2168C217.647 21.9344 219.049 22.9356 220.201 24.2038C221.353 25.472 222.254 26.9404 222.888 28.6425C223.522 30.3446 223.839 32.1801 223.839 34.1659C223.839 36.1516 223.522 38.104 222.888 39.8227C222.254 41.5415 221.352 43.0266 220.184 44.2948C219.016 45.563 217.614 46.5475 215.979 47.2484C214.36 47.9492 212.574 48.2997 210.621 48.2997C208.669 48.2997 206.899 47.9492 205.281 47.2484C203.678 46.5475 202.276 45.563 201.108 44.2948C199.94 43.0266 199.039 41.5415 198.404 39.8227C197.77 38.104 197.453 36.2183 197.453 34.1659C197.453 32.1134 197.77 30.3446 198.404 28.6425H198.388Z" fill="#231F20"/>
<path d="M265.413 47.3985H245.853V36.5687H263.46V30.8284H245.853V21.0666H264.445V15.1094H239.043V53.4558H265.413V47.3985Z" fill="#231F20"/>
<path d="M280.083 23.8366H280.2L298.391 53.4558H307.07V15.1094H300.244V43.8275H300.127L282.319 15.1094H273.273V53.4558H280.083V23.8366Z" fill="#231F20"/>
</g>
<defs>
<clipPath id="clip0_0_2704">
<rect width="500" height="95.2821" fill="white" transform="translate(0 0.858887)"/>
</clipPath>
</defs>
</svg>
