<svg width="34" height="35" viewBox="0 0 34 35" fill="none" xmlns="http://www.w3.org/2000/svg">
<g clip-path="url(#clip0_0_2634)">
<path d="M17.0001 0.500003C13.0363 0.49749 9.19625 1.88014 6.14389 4.40889C3.09153 6.93763 1.01875 10.4535 0.283947 14.3486C-0.450852 18.2436 0.198524 22.273 2.1198 25.74C4.04107 29.207 7.11345 31.8937 10.8057 33.3355C10.6569 31.9904 10.5209 29.9228 10.8631 28.4544C11.1733 27.1263 12.8563 20.0033 12.8563 20.0033C12.8563 20.0033 12.3484 18.9854 12.3484 17.4809C12.3484 15.1158 13.7191 13.352 15.4255 13.352C16.8747 13.352 17.576 14.44 17.576 15.7469C17.576 17.2046 16.6473 19.3849 16.1671 21.4058C15.7676 23.0973 17.0171 24.4785 18.6852 24.4785C21.707 24.4785 24.0296 21.291 24.0296 16.6925C24.0296 12.6231 21.1035 9.77775 16.9278 9.77775C12.0913 9.77775 9.25232 13.4051 9.25232 17.1536C9.25232 18.6156 9.81545 20.1818 10.5167 21.0339C10.5771 21.0981 10.6198 21.1769 10.6406 21.2626C10.6615 21.3482 10.6598 21.4378 10.6357 21.5226C10.5061 22.0581 10.2192 23.2141 10.1639 23.45C10.0896 23.7603 9.91745 23.8261 9.59445 23.6774C7.46945 22.6893 6.14345 19.5846 6.14345 17.0899C6.14345 11.7285 10.0407 6.80488 17.3762 6.80488C23.2731 6.80488 27.8567 11.006 27.8567 16.6224C27.8567 22.481 24.1613 27.1964 19.0358 27.1964C17.3125 27.1964 15.6932 26.3018 15.1386 25.2435L14.0803 29.2853C13.6957 30.7621 12.6587 32.613 11.966 33.7414C14.3034 34.4641 16.7693 34.6738 19.1952 34.3561C21.6211 34.0384 23.9499 33.2008 26.0224 31.9005C28.0949 30.6002 29.8623 28.8679 31.2039 26.822C32.5455 24.776 33.4297 22.4645 33.796 20.0455C34.1624 17.6264 34.0022 15.1568 33.3266 12.8054C32.6509 10.4539 31.4757 8.27594 29.8811 6.42033C28.2865 4.56472 26.3102 3.07516 24.0872 2.05341C21.8641 1.03166 19.4467 0.50179 17.0001 0.500003Z" fill="#454545"/>
</g>
<defs>
<clipPath id="clip0_0_2634">
<rect width="34" height="34" fill="white" transform="translate(0 0.5)"/>
</clipPath>
</defs>
</svg>
