<svg width="34" height="35" viewBox="0 0 34 35" fill="none" xmlns="http://www.w3.org/2000/svg">
<g clip-path="url(#clip0_0_2636)">
<path d="M19.125 0.5H23.3325C23.6385 2.01938 24.48 3.93613 25.9569 5.838C27.4019 7.70163 29.3186 9 31.875 9V13.25C28.1499 13.25 25.3513 11.5203 23.375 9.36338V23.875C23.375 25.9764 22.7519 28.0307 21.5844 29.7779C20.4169 31.5252 18.7575 32.8871 16.816 33.6912C14.8746 34.4954 12.7382 34.7058 10.6772 34.2959C8.61612 33.8859 6.72293 32.874 5.237 31.388C3.75106 29.9021 2.73913 28.0089 2.32916 25.9478C1.91919 23.8868 2.1296 21.7505 2.93379 19.809C3.73797 17.8675 5.0998 16.2081 6.84707 15.0406C8.59435 13.8731 10.6486 13.25 12.75 13.25V17.5C11.4892 17.5 10.2566 17.8739 9.20825 18.5744C8.15988 19.2749 7.34278 20.2705 6.86027 21.4354C6.37777 22.6003 6.25152 23.8821 6.4975 25.1187C6.74348 26.3553 7.35064 27.4913 8.2422 28.3828C9.13376 29.2744 10.2697 29.8815 11.5063 30.1275C12.7429 30.3735 14.0247 30.2473 15.1896 29.7647C16.3545 29.2822 17.3501 28.4651 18.0506 27.4168C18.7511 26.3684 19.125 25.1359 19.125 23.875V0.5Z" fill="#454545"/>
</g>
<defs>
<clipPath id="clip0_0_2636">
<rect width="34" height="34" fill="white" transform="translate(0 0.5)"/>
</clipPath>
</defs>
</svg>
