<svg width="34" height="35" viewBox="0 0 34 35" fill="none" xmlns="http://www.w3.org/2000/svg">
<g clip-path="url(#clip0_0_2638)">
<path d="M17.1084 4.7478H17.2975C19.0443 4.75418 27.8949 4.81793 30.2813 5.45968C31.0027 5.65554 31.6601 6.0373 32.1877 6.56682C32.7154 7.09634 33.0948 7.75507 33.2881 8.47718C33.5028 9.28468 33.6536 10.3536 33.7556 11.4564L33.7769 11.6774L33.8236 12.2299L33.8406 12.4509C33.9788 14.3932 33.9958 16.2122 33.9979 16.6095V16.7689C33.9958 17.1812 33.9766 19.1234 33.8236 21.1464L33.8066 21.3695L33.7875 21.5905C33.6813 22.806 33.524 24.013 33.2881 24.9013C33.0954 25.6237 32.7162 26.2827 32.1884 26.8123C31.6607 27.342 31.003 27.7235 30.2813 27.9188C27.8163 28.5818 18.4471 28.6285 17.1488 28.6307H16.847C16.1904 28.6307 13.4746 28.6179 10.6271 28.5202L10.2659 28.5074L10.081 28.4989L9.71763 28.484L9.35425 28.4692C6.9955 28.365 4.74938 28.1972 3.7145 27.9167C2.99304 27.7216 2.33551 27.3403 1.80779 26.8111C1.28007 26.2819 0.900675 25.6233 0.707625 24.9013C0.47175 24.0152 0.3145 22.806 0.20825 21.5905L0.19125 21.3674L0.17425 21.1464C0.0693762 19.7065 0.0112622 18.2636 0 16.8199L0 16.5585C0.00425 16.1017 0.02125 14.5228 0.136 12.7803L0.150875 12.5614L0.15725 12.4509L0.17425 12.2299L0.221 11.6774L0.24225 11.4564C0.34425 10.3536 0.495125 9.28255 0.70975 8.47718C0.902474 7.75478 1.28172 7.09574 1.80947 6.56613C2.33721 6.03652 2.99491 5.65495 3.71663 5.45968C4.7515 5.18343 6.99763 5.01343 9.35638 4.90718L9.71763 4.8923L10.0831 4.87955L10.2659 4.87318L10.6293 4.8583C12.6516 4.79322 14.6748 4.7571 16.6983 4.74993H17.1084V4.7478ZM13.6 11.5691V21.8073L22.4336 16.6903L13.6 11.5691Z" fill="#454545"/>
</g>
<defs>
<clipPath id="clip0_0_2638">
<rect width="34" height="34" fill="white" transform="translate(0 0.5)"/>
</clipPath>
</defs>
</svg>
